<mxfile host="app.diagrams.net" agent="Mozilla/5.0 (Windows NT 10.0; Win64; x64) AppleWebKit/537.36 (KHTML, like Gecko) Chrome/140.0.0.0 Safari/537.36 Edg/140.0.0.0" version="28.2.5">
  <diagram name="Page-1" id="oI_D1jtA_2Ry2hBN5BJo">
    <mxGraphModel dx="1216" dy="671" grid="1" gridSize="10" guides="1" tooltips="1" connect="1" arrows="1" fold="1" page="0" pageScale="1" pageWidth="850" pageHeight="1100" math="0" shadow="0">
      <root>
        <mxCell id="0" />
        <mxCell id="1" parent="0" />
        <mxCell id="fzJYR4v_sxdQlqUcEIJs-1" value="MACHINE SHOP&lt;br&gt;&lt;div&gt;MANAGER&lt;/div&gt;" style="shape=cube;whiteSpace=wrap;html=1;boundedLbl=1;backgroundOutline=1;darkOpacity=0.05;darkOpacity2=0.1;fillColor=#1ba1e2;fontColor=#ffffff;strokeColor=#006EAF;" parent="1" vertex="1">
          <mxGeometry x="60" y="280" width="120" height="80" as="geometry" />
        </mxCell>
        <mxCell id="fzJYR4v_sxdQlqUcEIJs-2" value="VALIDATE INPUT" style="rounded=1;whiteSpace=wrap;html=1;fillColor=#1ba1e2;fontColor=#ffffff;strokeColor=#006EAF;" parent="1" vertex="1">
          <mxGeometry x="280" y="250" width="120" height="140" as="geometry" />
        </mxCell>
        <mxCell id="fzJYR4v_sxdQlqUcEIJs-3" value="RECEIVE, ADD, REMOVE, EDIT, RECORD INFORMATION" style="rounded=1;whiteSpace=wrap;html=1;fillColor=#1ba1e2;fontColor=#ffffff;strokeColor=#006EAF;" parent="1" vertex="1">
          <mxGeometry x="610" y="250" width="120" height="140" as="geometry" />
        </mxCell>
        <mxCell id="fzJYR4v_sxdQlqUcEIJs-7" value="" style="endArrow=none;html=1;rounded=0;exitX=0;exitY=0.25;exitDx=0;exitDy=0;entryX=1;entryY=0.25;entryDx=0;entryDy=0;" parent="1" source="fzJYR4v_sxdQlqUcEIJs-2" target="fzJYR4v_sxdQlqUcEIJs-2" edge="1">
          <mxGeometry width="50" height="50" relative="1" as="geometry">
            <mxPoint x="400" y="430" as="sourcePoint" />
            <mxPoint x="450" y="380" as="targetPoint" />
          </mxGeometry>
        </mxCell>
        <mxCell id="fzJYR4v_sxdQlqUcEIJs-8" value="4.1" style="text;html=1;align=center;verticalAlign=middle;whiteSpace=wrap;rounded=0;" parent="1" vertex="1">
          <mxGeometry x="310" y="250" width="60" height="30" as="geometry" />
        </mxCell>
        <mxCell id="fzJYR4v_sxdQlqUcEIJs-10" value="" style="endArrow=none;html=1;rounded=0;exitX=0;exitY=0.25;exitDx=0;exitDy=0;entryX=1;entryY=0.25;entryDx=0;entryDy=0;" parent="1" edge="1">
          <mxGeometry width="50" height="50" relative="1" as="geometry">
            <mxPoint x="610" y="290" as="sourcePoint" />
            <mxPoint x="730" y="290" as="targetPoint" />
          </mxGeometry>
        </mxCell>
        <mxCell id="fzJYR4v_sxdQlqUcEIJs-12" value="4.3" style="text;html=1;align=center;verticalAlign=middle;whiteSpace=wrap;rounded=0;" parent="1" vertex="1">
          <mxGeometry x="640" y="250" width="60" height="30" as="geometry" />
        </mxCell>
        <mxCell id="fzJYR4v_sxdQlqUcEIJs-15" value="REJECT INPUT" style="rounded=1;whiteSpace=wrap;html=1;fillColor=#1ba1e2;fontColor=#ffffff;strokeColor=#006EAF;" parent="1" vertex="1">
          <mxGeometry x="280" y="20" width="120" height="140" as="geometry" />
        </mxCell>
        <mxCell id="fzJYR4v_sxdQlqUcEIJs-16" value="" style="endArrow=none;html=1;rounded=0;exitX=0;exitY=0.25;exitDx=0;exitDy=0;entryX=1;entryY=0.25;entryDx=0;entryDy=0;" parent="1" source="fzJYR4v_sxdQlqUcEIJs-15" target="fzJYR4v_sxdQlqUcEIJs-15" edge="1">
          <mxGeometry width="50" height="50" relative="1" as="geometry">
            <mxPoint x="400" y="200" as="sourcePoint" />
            <mxPoint x="450" y="150" as="targetPoint" />
          </mxGeometry>
        </mxCell>
        <mxCell id="fzJYR4v_sxdQlqUcEIJs-17" value="4.2" style="text;html=1;align=center;verticalAlign=middle;whiteSpace=wrap;rounded=0;" parent="1" vertex="1">
          <mxGeometry x="310" y="20" width="60" height="30" as="geometry" />
        </mxCell>
        <mxCell id="fzJYR4v_sxdQlqUcEIJs-18" value="" style="endArrow=classic;html=1;rounded=0;exitX=0;exitY=0;exitDx=120;exitDy=50;exitPerimeter=0;entryX=0;entryY=0.571;entryDx=0;entryDy=0;entryPerimeter=0;" parent="1" source="fzJYR4v_sxdQlqUcEIJs-1" target="fzJYR4v_sxdQlqUcEIJs-2" edge="1">
          <mxGeometry width="50" height="50" relative="1" as="geometry">
            <mxPoint x="400" y="430" as="sourcePoint" />
            <mxPoint x="450" y="380" as="targetPoint" />
          </mxGeometry>
        </mxCell>
        <mxCell id="fzJYR4v_sxdQlqUcEIJs-21" value="" style="endArrow=classic;html=1;rounded=0;exitX=0.5;exitY=0;exitDx=0;exitDy=0;entryX=0.5;entryY=1;entryDx=0;entryDy=0;" parent="1" source="fzJYR4v_sxdQlqUcEIJs-8" target="fzJYR4v_sxdQlqUcEIJs-15" edge="1">
          <mxGeometry width="50" height="50" relative="1" as="geometry">
            <mxPoint x="400" y="430" as="sourcePoint" />
            <mxPoint x="450" y="380" as="targetPoint" />
          </mxGeometry>
        </mxCell>
        <mxCell id="fzJYR4v_sxdQlqUcEIJs-22" value="" style="endArrow=classic;html=1;rounded=0;exitX=0;exitY=0.5;exitDx=0;exitDy=0;entryX=0;entryY=0;entryDx=50;entryDy=0;entryPerimeter=0;" parent="1" source="fzJYR4v_sxdQlqUcEIJs-15" target="fzJYR4v_sxdQlqUcEIJs-1" edge="1">
          <mxGeometry width="50" height="50" relative="1" as="geometry">
            <mxPoint x="400" y="340" as="sourcePoint" />
            <mxPoint x="450" y="290" as="targetPoint" />
            <Array as="points">
              <mxPoint x="110" y="90" />
            </Array>
          </mxGeometry>
        </mxCell>
        <mxCell id="fzJYR4v_sxdQlqUcEIJs-31" value="" style="shape=partialRectangle;whiteSpace=wrap;html=1;left=0;right=0;fillColor=#1ba1e2;fontColor=#ffffff;strokeColor=light-dark(#000000,#F9F9F9);" parent="1" vertex="1">
          <mxGeometry x="940" y="300" width="210" height="60" as="geometry" />
        </mxCell>
        <mxCell id="fzJYR4v_sxdQlqUcEIJs-33" value="" style="endArrow=none;html=1;rounded=0;entryX=0;entryY=0;entryDx=0;entryDy=0;exitX=0;exitY=1;exitDx=0;exitDy=0;" parent="1" source="fzJYR4v_sxdQlqUcEIJs-31" target="fzJYR4v_sxdQlqUcEIJs-31" edge="1">
          <mxGeometry width="50" height="50" relative="1" as="geometry">
            <mxPoint x="450" y="350" as="sourcePoint" />
            <mxPoint x="500" y="300" as="targetPoint" />
          </mxGeometry>
        </mxCell>
        <mxCell id="fzJYR4v_sxdQlqUcEIJs-34" value="" style="endArrow=none;html=1;rounded=0;entryX=0.25;entryY=0;entryDx=0;entryDy=0;exitX=0.25;exitY=1;exitDx=0;exitDy=0;" parent="1" source="fzJYR4v_sxdQlqUcEIJs-31" target="fzJYR4v_sxdQlqUcEIJs-31" edge="1">
          <mxGeometry width="50" height="50" relative="1" as="geometry">
            <mxPoint x="450" y="350" as="sourcePoint" />
            <mxPoint x="500" y="300" as="targetPoint" />
          </mxGeometry>
        </mxCell>
        <mxCell id="fzJYR4v_sxdQlqUcEIJs-35" value="D1" style="text;html=1;align=center;verticalAlign=middle;whiteSpace=wrap;rounded=0;" parent="1" vertex="1">
          <mxGeometry x="960" y="315" width="10" height="30" as="geometry" />
        </mxCell>
        <mxCell id="fzJYR4v_sxdQlqUcEIJs-36" value="PRODUCTION INFORMATION DATABASE" style="text;html=1;align=center;verticalAlign=middle;whiteSpace=wrap;rounded=0;" parent="1" vertex="1">
          <mxGeometry x="1040" y="315" width="60" height="30" as="geometry" />
        </mxCell>
        <mxCell id="fzJYR4v_sxdQlqUcEIJs-39" value="SUBMITTED INPUT" style="text;html=1;align=center;verticalAlign=middle;whiteSpace=wrap;rounded=0;" parent="1" vertex="1">
          <mxGeometry x="200" y="290" width="60" height="30" as="geometry" />
        </mxCell>
        <mxCell id="fzJYR4v_sxdQlqUcEIJs-40" value="REJECTED INPUT" style="text;html=1;align=center;verticalAlign=middle;whiteSpace=wrap;rounded=0;" parent="1" vertex="1">
          <mxGeometry x="350" y="190" width="60" height="30" as="geometry" />
        </mxCell>
        <mxCell id="fzJYR4v_sxdQlqUcEIJs-43" value="INPUT REJECTION NOTICE" style="text;html=1;align=center;verticalAlign=middle;whiteSpace=wrap;rounded=0;" parent="1" vertex="1">
          <mxGeometry x="130" y="60" width="120" height="30" as="geometry" />
        </mxCell>
        <mxCell id="fzJYR4v_sxdQlqUcEIJs-44" value="ADD, REMOVE, EDIT RECORD INFORMATION" style="text;html=1;align=center;verticalAlign=middle;whiteSpace=wrap;rounded=0;" parent="1" vertex="1">
          <mxGeometry x="430" y="290" width="150" height="30" as="geometry" />
        </mxCell>
        <mxCell id="fzJYR4v_sxdQlqUcEIJs-49" value="" style="endArrow=classic;html=1;rounded=0;exitX=1;exitY=0.571;exitDx=0;exitDy=0;exitPerimeter=0;" parent="1" source="fzJYR4v_sxdQlqUcEIJs-2" edge="1">
          <mxGeometry width="50" height="50" relative="1" as="geometry">
            <mxPoint x="400" y="340" as="sourcePoint" />
            <mxPoint x="610" y="330" as="targetPoint" />
          </mxGeometry>
        </mxCell>
        <mxCell id="fzJYR4v_sxdQlqUcEIJs-50" value="" style="endArrow=classic;html=1;rounded=0;exitX=1;exitY=0.571;exitDx=0;exitDy=0;exitPerimeter=0;" parent="1" source="fzJYR4v_sxdQlqUcEIJs-3" edge="1">
          <mxGeometry width="50" height="50" relative="1" as="geometry">
            <mxPoint x="740" y="330" as="sourcePoint" />
            <mxPoint x="940" y="330" as="targetPoint" />
          </mxGeometry>
        </mxCell>
        <mxCell id="fzJYR4v_sxdQlqUcEIJs-51" value="SQL INSERT, UPDATE, DELETE QUERY" style="text;html=1;align=center;verticalAlign=middle;whiteSpace=wrap;rounded=0;" parent="1" vertex="1">
          <mxGeometry x="740" y="290" width="190" height="30" as="geometry" />
        </mxCell>
      </root>
    </mxGraphModel>
  </diagram>
</mxfile>
